<mxfile host="app.diagrams.net" modified="2021-03-02T11:39:36.686Z" agent="5.0 (Windows NT 10.0; Win64; x64) AppleWebKit/537.36 (KHTML, like Gecko) Chrome/88.0.4324.190 Safari/537.36" etag="P_gDkIqrjEnaCpkljnod" version="14.4.3" type="github">
  <diagram id="C5RBs43oDa-KdzZeNtuy" name="Page-1">
    <mxGraphModel dx="782" dy="437" grid="1" gridSize="10" guides="1" tooltips="1" connect="1" arrows="1" fold="1" page="1" pageScale="1" pageWidth="827" pageHeight="1169" math="0" shadow="0">
      <root>
        <mxCell id="WIyWlLk6GJQsqaUBKTNV-0" />
        <mxCell id="WIyWlLk6GJQsqaUBKTNV-1" parent="WIyWlLk6GJQsqaUBKTNV-0" />
        <mxCell id="0L7EkRVdcIC6oMYKm22u-1" style="edgeStyle=orthogonalEdgeStyle;rounded=0;orthogonalLoop=1;jettySize=auto;html=1;exitX=1;exitY=0.5;exitDx=0;exitDy=0;entryX=0;entryY=0.5;entryDx=0;entryDy=0;" edge="1" parent="WIyWlLk6GJQsqaUBKTNV-1" source="WIyWlLk6GJQsqaUBKTNV-3" target="WIyWlLk6GJQsqaUBKTNV-7">
          <mxGeometry relative="1" as="geometry" />
        </mxCell>
        <mxCell id="WIyWlLk6GJQsqaUBKTNV-3" value="allocation reqeust&amp;nbsp;" style="rounded=1;whiteSpace=wrap;html=1;fontSize=12;glass=0;strokeWidth=1;shadow=0;" parent="WIyWlLk6GJQsqaUBKTNV-1" vertex="1">
          <mxGeometry x="10" y="80" width="120" height="40" as="geometry" />
        </mxCell>
        <mxCell id="0L7EkRVdcIC6oMYKm22u-3" style="edgeStyle=orthogonalEdgeStyle;rounded=0;orthogonalLoop=1;jettySize=auto;html=1;exitX=1;exitY=0.5;exitDx=0;exitDy=0;" edge="1" parent="WIyWlLk6GJQsqaUBKTNV-1" source="WIyWlLk6GJQsqaUBKTNV-7" target="0L7EkRVdcIC6oMYKm22u-2">
          <mxGeometry relative="1" as="geometry" />
        </mxCell>
        <mxCell id="WIyWlLk6GJQsqaUBKTNV-7" value="request analyse" style="rounded=1;whiteSpace=wrap;html=1;fontSize=12;glass=0;strokeWidth=1;shadow=0;" parent="WIyWlLk6GJQsqaUBKTNV-1" vertex="1">
          <mxGeometry x="180" y="80" width="120" height="40" as="geometry" />
        </mxCell>
        <mxCell id="0L7EkRVdcIC6oMYKm22u-6" style="edgeStyle=orthogonalEdgeStyle;rounded=0;orthogonalLoop=1;jettySize=auto;html=1;exitX=1;exitY=0.5;exitDx=0;exitDy=0;entryX=0;entryY=0.5;entryDx=0;entryDy=0;" edge="1" parent="WIyWlLk6GJQsqaUBKTNV-1" source="0L7EkRVdcIC6oMYKm22u-2" target="0L7EkRVdcIC6oMYKm22u-4">
          <mxGeometry relative="1" as="geometry" />
        </mxCell>
        <mxCell id="0L7EkRVdcIC6oMYKm22u-2" value="Generate parameter" style="rounded=1;whiteSpace=wrap;html=1;fontSize=12;glass=0;strokeWidth=1;shadow=0;" vertex="1" parent="WIyWlLk6GJQsqaUBKTNV-1">
          <mxGeometry x="340" y="80" width="120" height="40" as="geometry" />
        </mxCell>
        <mxCell id="0L7EkRVdcIC6oMYKm22u-8" style="edgeStyle=orthogonalEdgeStyle;rounded=0;orthogonalLoop=1;jettySize=auto;html=1;exitX=1;exitY=0.5;exitDx=0;exitDy=0;entryX=0;entryY=0.5;entryDx=0;entryDy=0;" edge="1" parent="WIyWlLk6GJQsqaUBKTNV-1" source="0L7EkRVdcIC6oMYKm22u-4" target="0L7EkRVdcIC6oMYKm22u-7">
          <mxGeometry relative="1" as="geometry" />
        </mxCell>
        <mxCell id="0L7EkRVdcIC6oMYKm22u-4" value="search hive" style="rounded=1;whiteSpace=wrap;html=1;fontSize=12;glass=0;strokeWidth=1;shadow=0;" vertex="1" parent="WIyWlLk6GJQsqaUBKTNV-1">
          <mxGeometry x="500" y="80" width="120" height="40" as="geometry" />
        </mxCell>
        <mxCell id="0L7EkRVdcIC6oMYKm22u-7" value="generate allocation data" style="rounded=1;whiteSpace=wrap;html=1;fontSize=12;glass=0;strokeWidth=1;shadow=0;" vertex="1" parent="WIyWlLk6GJQsqaUBKTNV-1">
          <mxGeometry x="640" y="80" width="120" height="40" as="geometry" />
        </mxCell>
        <mxCell id="0L7EkRVdcIC6oMYKm22u-17" style="edgeStyle=orthogonalEdgeStyle;rounded=0;orthogonalLoop=1;jettySize=auto;html=1;exitX=1;exitY=0.5;exitDx=0;exitDy=0;entryX=0;entryY=0.5;entryDx=0;entryDy=0;" edge="1" parent="WIyWlLk6GJQsqaUBKTNV-1" source="0L7EkRVdcIC6oMYKm22u-18" target="0L7EkRVdcIC6oMYKm22u-20">
          <mxGeometry relative="1" as="geometry" />
        </mxCell>
        <mxCell id="0L7EkRVdcIC6oMYKm22u-18" value="allocation reqeust&amp;nbsp;" style="rounded=1;whiteSpace=wrap;html=1;fontSize=12;glass=0;strokeWidth=1;shadow=0;" vertex="1" parent="WIyWlLk6GJQsqaUBKTNV-1">
          <mxGeometry x="10" y="290" width="120" height="40" as="geometry" />
        </mxCell>
        <mxCell id="0L7EkRVdcIC6oMYKm22u-19" style="edgeStyle=orthogonalEdgeStyle;rounded=0;orthogonalLoop=1;jettySize=auto;html=1;exitX=1;exitY=0.5;exitDx=0;exitDy=0;" edge="1" parent="WIyWlLk6GJQsqaUBKTNV-1" source="0L7EkRVdcIC6oMYKm22u-20" target="0L7EkRVdcIC6oMYKm22u-22">
          <mxGeometry relative="1" as="geometry" />
        </mxCell>
        <mxCell id="0L7EkRVdcIC6oMYKm22u-20" value="request analyse" style="rounded=1;whiteSpace=wrap;html=1;fontSize=12;glass=0;strokeWidth=1;shadow=0;" vertex="1" parent="WIyWlLk6GJQsqaUBKTNV-1">
          <mxGeometry x="180" y="290" width="120" height="40" as="geometry" />
        </mxCell>
        <object label="" id="0L7EkRVdcIC6oMYKm22u-21">
          <mxCell style="edgeStyle=orthogonalEdgeStyle;rounded=0;orthogonalLoop=1;jettySize=auto;html=1;entryX=0;entryY=0.5;entryDx=0;entryDy=0;exitX=0.5;exitY=0;exitDx=0;exitDy=0;" edge="1" parent="WIyWlLk6GJQsqaUBKTNV-1" source="0L7EkRVdcIC6oMYKm22u-27" target="0L7EkRVdcIC6oMYKm22u-24">
            <mxGeometry relative="1" as="geometry">
              <Array as="points">
                <mxPoint x="520" y="230" />
                <mxPoint x="520" y="220" />
              </Array>
            </mxGeometry>
          </mxCell>
        </object>
        <mxCell id="0L7EkRVdcIC6oMYKm22u-22" value="Generate parameter" style="rounded=1;whiteSpace=wrap;html=1;fontSize=12;glass=0;strokeWidth=1;shadow=0;" vertex="1" parent="WIyWlLk6GJQsqaUBKTNV-1">
          <mxGeometry x="340" y="290" width="120" height="40" as="geometry" />
        </mxCell>
        <mxCell id="0L7EkRVdcIC6oMYKm22u-37" style="edgeStyle=orthogonalEdgeStyle;rounded=0;orthogonalLoop=1;jettySize=auto;html=1;exitX=1;exitY=0.5;exitDx=0;exitDy=0;entryX=0.583;entryY=0.033;entryDx=0;entryDy=0;entryPerimeter=0;" edge="1" parent="WIyWlLk6GJQsqaUBKTNV-1" source="0L7EkRVdcIC6oMYKm22u-24" target="0L7EkRVdcIC6oMYKm22u-25">
          <mxGeometry relative="1" as="geometry" />
        </mxCell>
        <mxCell id="0L7EkRVdcIC6oMYKm22u-24" value="search hive" style="rounded=1;whiteSpace=wrap;html=1;fontSize=12;glass=0;strokeWidth=1;shadow=0;" vertex="1" parent="WIyWlLk6GJQsqaUBKTNV-1">
          <mxGeometry x="680" y="200" width="120" height="40" as="geometry" />
        </mxCell>
        <mxCell id="0L7EkRVdcIC6oMYKm22u-25" value="generate allocation data" style="rounded=1;whiteSpace=wrap;html=1;fontSize=12;glass=0;strokeWidth=1;shadow=0;" vertex="1" parent="WIyWlLk6GJQsqaUBKTNV-1">
          <mxGeometry x="810" y="300" width="120" height="40" as="geometry" />
        </mxCell>
        <mxCell id="0L7EkRVdcIC6oMYKm22u-38" style="edgeStyle=orthogonalEdgeStyle;rounded=0;orthogonalLoop=1;jettySize=auto;html=1;exitX=1;exitY=0.5;exitDx=0;exitDy=0;entryX=0;entryY=0.5;entryDx=0;entryDy=0;" edge="1" parent="WIyWlLk6GJQsqaUBKTNV-1" source="0L7EkRVdcIC6oMYKm22u-26" target="0L7EkRVdcIC6oMYKm22u-33">
          <mxGeometry relative="1" as="geometry" />
        </mxCell>
        <mxCell id="0L7EkRVdcIC6oMYKm22u-26" value="search ES&amp;nbsp;" style="rounded=1;whiteSpace=wrap;html=1;fontSize=12;glass=0;strokeWidth=1;shadow=0;" vertex="1" parent="WIyWlLk6GJQsqaUBKTNV-1">
          <mxGeometry x="550" y="370" width="120" height="40" as="geometry" />
        </mxCell>
        <mxCell id="0L7EkRVdcIC6oMYKm22u-30" style="edgeStyle=orthogonalEdgeStyle;rounded=0;orthogonalLoop=1;jettySize=auto;html=1;exitX=0.5;exitY=1;exitDx=0;exitDy=0;entryX=0;entryY=0.5;entryDx=0;entryDy=0;" edge="1" parent="WIyWlLk6GJQsqaUBKTNV-1" source="0L7EkRVdcIC6oMYKm22u-27" target="0L7EkRVdcIC6oMYKm22u-26">
          <mxGeometry relative="1" as="geometry" />
        </mxCell>
        <mxCell id="0L7EkRVdcIC6oMYKm22u-27" value="ES enabled" style="rhombus;whiteSpace=wrap;html=1;" vertex="1" parent="WIyWlLk6GJQsqaUBKTNV-1">
          <mxGeometry x="480" y="270" width="80" height="80" as="geometry" />
        </mxCell>
        <mxCell id="0L7EkRVdcIC6oMYKm22u-28" value="" style="edgeStyle=orthogonalEdgeStyle;rounded=0;orthogonalLoop=1;jettySize=auto;html=1;" edge="1" parent="WIyWlLk6GJQsqaUBKTNV-1" source="0L7EkRVdcIC6oMYKm22u-22" target="0L7EkRVdcIC6oMYKm22u-27">
          <mxGeometry relative="1" as="geometry" />
        </mxCell>
        <mxCell id="0L7EkRVdcIC6oMYKm22u-35" style="edgeStyle=orthogonalEdgeStyle;rounded=0;orthogonalLoop=1;jettySize=auto;html=1;exitX=0.5;exitY=0;exitDx=0;exitDy=0;" edge="1" parent="WIyWlLk6GJQsqaUBKTNV-1" source="0L7EkRVdcIC6oMYKm22u-33" target="0L7EkRVdcIC6oMYKm22u-24">
          <mxGeometry relative="1" as="geometry" />
        </mxCell>
        <mxCell id="0L7EkRVdcIC6oMYKm22u-36" style="edgeStyle=orthogonalEdgeStyle;rounded=0;orthogonalLoop=1;jettySize=auto;html=1;exitX=1;exitY=0.5;exitDx=0;exitDy=0;entryX=0.583;entryY=1.067;entryDx=0;entryDy=0;entryPerimeter=0;" edge="1" parent="WIyWlLk6GJQsqaUBKTNV-1" source="0L7EkRVdcIC6oMYKm22u-33" target="0L7EkRVdcIC6oMYKm22u-25">
          <mxGeometry relative="1" as="geometry" />
        </mxCell>
        <mxCell id="0L7EkRVdcIC6oMYKm22u-33" value="find result" style="rhombus;whiteSpace=wrap;html=1;" vertex="1" parent="WIyWlLk6GJQsqaUBKTNV-1">
          <mxGeometry x="700" y="350" width="80" height="80" as="geometry" />
        </mxCell>
      </root>
    </mxGraphModel>
  </diagram>
</mxfile>
